<?xml version="1.0" encoding="UTF-8" standalone="no"?>
<!-- Created with Inkscape (http://www.inkscape.org/) -->

<svg
   width="32"
   height="32"
   viewBox="0 0 8.4666666 8.4666666"
   version="1.1"
   id="svg259"
   xml:space="preserve"
   inkscape:version="1.2.2 (732a01da63, 2022-12-09)"
   sodipodi:docname="_gd_json_schema_icon.svg"
   xmlns:inkscape="http://www.inkscape.org/namespaces/inkscape"
   xmlns:sodipodi="http://sodipodi.sourceforge.net/DTD/sodipodi-0.dtd"
   xmlns="http://www.w3.org/2000/svg"
   xmlns:svg="http://www.w3.org/2000/svg"><sodipodi:namedview
     id="namedview261"
     pagecolor="#505050"
     bordercolor="#eeeeee"
     borderopacity="1"
     inkscape:showpageshadow="0"
     inkscape:pageopacity="0"
     inkscape:pagecheckerboard="0"
     inkscape:deskcolor="#505050"
     inkscape:document-units="px"
     showgrid="true"
     inkscape:zoom="18.21875"
     inkscape:cx="18.442539"
     inkscape:cy="12.404803"
     inkscape:window-width="2560"
     inkscape:window-height="1369"
     inkscape:window-x="-8"
     inkscape:window-y="-8"
     inkscape:window-maximized="1"
     inkscape:current-layer="layer1"><inkscape:grid
       type="xygrid"
       id="grid275"
       originx="0"
       originy="0" /></sodipodi:namedview><defs
     id="defs256" /><g
     inkscape:label="Layer 1"
     inkscape:groupmode="layer"
     id="layer1"><text
       xml:space="preserve"
       style="font-weight:bold;font-size:6.35px;font-family:helvetica;-inkscape-font-specification:'helvetica Bold';fill:#f2eb7b;stroke-width:0.529167"
       x="3.4395833"
       y="4.7624998"
       id="text351"><tspan
         sodipodi:role="line"
         id="tspan349"
         style="stroke-width:0.529167"></tspan></text><g
       aria-label="{"
       transform="scale(1.0035639,0.99644877)"
       id="text405"
       style="font-weight:bold;font-size:7.87848px;font-family:helvetica;-inkscape-font-specification:'helvetica Bold';fill:#f2eb7b;stroke-width:0.525232"><path
         d="M 1.0244548e-7,4.7305341 V 3.8072747 Q 0.28082483,3.791887 0.42316065,3.7226426 0.56549647,3.6533981 0.66936315,3.4918277 0.77322982,3.3264104 0.81169897,3.0802079 q 0.0307753,-0.1846518 0.0307753,-0.6424346 0,-0.7463013 0.0692445,-1.0386668 Q 0.98096318,1.1028941 1.1617681,0.92593608 1.3425731,0.74513112 1.6887954,0.64126444 1.9234571,0.57201999 2.4274029,0.57201999 H 2.6312893 V 1.4914324 q -0.4270075,0 -0.5501087,0.05001 -0.1192543,0.046163 -0.176958,0.1461828 -0.057704,0.096173 -0.057704,0.3346815 0,0.2423556 -0.034622,0.9194124 Q 1.792662,3.3225635 1.7118769,3.5610722 1.6310917,3.795734 1.5041435,3.9496105 1.3810422,4.1034871 1.123299,4.2689044 q 0.2269679,0.1307951 0.3693038,0.3077531 0.1461827,0.1731111 0.223121,0.4231605 0.076938,0.2500495 0.1000197,0.6693631 0.026928,0.6385877 0.026928,0.8155458 0,0.2538963 0.061551,0.3539161 0.061551,0.1000197 0.1846518,0.1500296 0.1269482,0.053857 0.5424149,0.053857 V 7.9657888 H 2.4274029 q -0.5193334,0 -0.7963112,-0.084632 Q 1.3541138,7.8003715 1.1617681,7.6080258 0.97326936,7.4156801 0.90787182,7.1310084 0.84247428,6.8501837 0.84247428,6.2423713 q 0,-0.7078322 -0.0615506,-0.9194125 Q 0.69629154,5.0152057 0.52318041,4.8844106 0.35391619,4.7497686 1.0244548e-7,4.7305341 Z"
         id="path579" /></g><g
       aria-label="}"
       transform="scale(1.0035639,0.99644875)"
       id="text409"
       style="font-weight:bold;font-size:7.87848px;font-family:helvetica;-inkscape-font-specification:'helvetica Bold';fill:#f2eb7b;stroke-width:0.525232"><path
         d="M 8.4366006,4.7305345 Q 8.1557759,4.7459222 8.01344,4.8151667 7.8711042,4.8844111 7.7672375,5.0498284 7.6672178,5.2113988 7.6249017,5.4576013 7.5941264,5.6422532 7.5941264,6.096189 q 0,0.7463014 -0.069245,1.0425137 Q 7.4594844,7.4349151 7.2786795,7.6118732 7.0978745,7.7926781 6.7478053,7.8965448 6.5131436,7.9657893 6.0091978,7.9657893 H 5.8053114 V 7.0425299 q 0.4116198,0 0.5385679,-0.053857 0.1269482,-0.05001 0.1846519,-0.1500297 0.061551,-0.096173 0.061551,-0.3308346 0.00385,-0.2346617 0.034622,-0.8963309 Q 6.6439386,5.2113988 6.7285707,4.9728901 6.8132029,4.7305345 6.9516918,4.5651172 7.0940276,4.395853 7.3133017,4.2689049 7.02863,4.084253 6.897835,3.9072949 6.71703,3.6533986 6.6516325,3.2610134 6.6093164,2.9917294 6.5900818,2.0761639 6.5862349,1.7876453 6.536225,1.6914724 6.4900621,1.5952996 6.3631139,1.5452897 6.2400127,1.4914329 5.8053114,1.4914329 V 0.57202046 h 0.2038864 q 0.5193334,0 0.7963112,0.0807852 0.2769778,0.0807852 0.4654766,0.27697781 0.1884988,0.19234573 0.2538963,0.47701733 0.069245,0.2808247 0.069245,0.8886372 0,0.7039852 0.057704,0.9194124 0.084632,0.3077531 0.2577433,0.4423951 0.1731111,0.1307951 0.5270272,0.1500297 z"
         id="path582" /></g><path
       style="fill:#f2eb7b;stroke-width:0.529167"
       d="M 2.9104167,3.9687501 3.7041666,4.7625 5.5562499,2.6458334 6.3499999,3.4395834 3.7041666,6.35 3.175,5.8208333 2.1166667,4.7625 Z"
       id="path469"
       sodipodi:nodetypes="cccccccc" /></g></svg>
